<?xml version="1.0" standalone="no"?>
<!DOCTYPE svg PUBLIC "-//W3C//DTD SVG 20010904//EN"
 "http://www.w3.org/TR/2001/REC-SVG-20010904/DTD/svg10.dtd">
<svg version="1.0" xmlns="http://www.w3.org/2000/svg"
 width="512.000000pt" height="512.000000pt" viewBox="0 0 512.000000 512.000000"
 preserveAspectRatio="xMidYMid meet">
<metadata>
Created by potrace 1.14, written by Peter Selinger 2001-2017
</metadata>
<g transform="translate(0.000000,512.000000) scale(0.100000,-0.100000)"
fill="#000000" stroke="none">
<path d="M2318 5116 c-1 -2 -39 -6 -83 -10 -90 -7 -159 -15 -193 -22 -12 -2
-44 -7 -70 -10 -146 -17 -422 -88 -597 -154 -557 -209 -908 -539 -1135 -1067
-23 -54 -43 -102 -44 -108 -1 -5 -4 -14 -8 -20 -7 -13 -73 -228 -83 -272 -2
-10 -13 -59 -24 -110 -12 -51 -23 -109 -27 -130 -3 -21 -7 -45 -9 -53 -2 -8
-7 -44 -11 -80 -3 -36 -8 -68 -10 -71 -9 -16 -19 -233 -18 -409 1 -230 4 -259
55 -477 13 -53 19 -76 49 -178 12 -38 25 -79 30 -90 5 -11 12 -31 16 -45 39
-146 261 -623 388 -835 114 -189 191 -293 321 -433 215 -232 522 -401 848
-467 10 -2 26 -6 35 -9 9 -3 35 -8 57 -11 22 -3 65 -10 95 -15 30 -5 89 -12
130 -16 41 -3 84 -8 95 -11 42 -9 573 -11 640 -2 314 44 650 155 980 324 543
279 899 621 1125 1080 102 208 169 411 209 640 26 148 38 318 36 510 -2 225
-24 340 -110 586 -83 236 -281 625 -440 864 -111 167 -219 298 -358 434 -258
254 -557 438 -892 550 -82 27 -163 52 -180 56 -56 11 -240 44 -285 50 -46 7
-525 16 -532 11z"/>
</g>
</svg>
