<svg
        viewBox="0 0 312.5 312.5"
>
    <defs id="SvgjsDefs1013"></defs>
    <g id="SvgjsG1014" featurekey="rootContainer" transform="matrix(6.25,0,0,6.25,0,0)" fill="#000000">
        <path
                xmlns="http://www.w3.org/2000/svg"
                d="M50 25c0 8.88-3.62 15.67-10.6 20.11C35.53 47.58 29.93 50 25 50c-8.63 0-14.24-1.37-18.73-8C3.57 38 0 30.2 0 25c0-6.85 1.76-14.06 6.22-18.58S18.04 0 25 0c9.5 0 16.77 5.3 21 13.11 1.88 3.53 4 7.58 4 11.89z"
        ></path>
    </g>
    <g
            id="SvgjsG1015"
            featurekey="symbolFeature-0"
            transform="matrix(1.1574074074074074,0,0,1.1574074074074074,98.2123845771507,53.70479539588646)"
            fill="#ffffff"
    >
        <g xmlns="http://www.w3.org/2000/svg">
            <g>
                <g>
                    <g>
                        <path
                                fill="#ffffff"
                                d="M75.195,72.96c-0.619,0-1.241-0.21-1.75-0.64c-1.146-0.967-1.291-2.681-0.324-3.827l15.609-18.493      L73.122,31.507c-0.967-1.146-0.822-2.859,0.324-3.827c1.146-0.968,2.859-0.823,3.827,0.323L94.36,48.248      c0.854,1.012,0.854,2.492,0,3.503L77.272,71.995C76.735,72.632,75.968,72.96,75.195,72.96z"
                        ></path>
                    </g>
                </g>
            </g>
            <g>
                <g>
                    <g>
                        <path
                                fill="#ffffff"
                                d="M24.805,72.96c-0.772,0-1.539-0.328-2.076-0.964L5.641,51.752c-0.854-1.012-0.854-2.492,0-3.503      l17.088-20.245c0.967-1.146,2.681-1.291,3.827-0.324c1.146,0.967,1.291,2.681,0.324,3.827L11.269,50.001l15.609,18.492      c0.967,1.146,0.823,2.859-0.323,3.827C26.045,72.749,25.423,72.96,24.805,72.96z"
                        ></path>
                    </g>
                </g>
            </g>
            <g>
                <path
                        fill="#ffffff"
                        d="M37.325,72.96c-0.492,0-0.99-0.134-1.438-0.414c-1.271-0.796-1.657-2.471-0.861-3.742L60.37,28.315    c0.796-1.271,2.472-1.656,3.743-0.861c1.271,0.796,1.657,2.471,0.861,3.742L39.63,71.685C39.115,72.508,38.23,72.96,37.325,72.96z    "
                ></path>
            </g>
        </g>
    </g>
    <g
            id="SvgjsG1016"
            featurekey="nameFeature-0"
            transform="matrix(2.0037630177828007,0,0,2.0037630177828007,54.964209385989086,141.6799550700416)"
            fill="#ffffff"
    >
        <path
                d="M8.44 16 l3.6 -0.64 c0.04 -1.24 0.04 -2.88 -0.12 -4.12 c-5 0.12 -8.32 0.6 -9.6 0.8 c-0.24 1.16 -0.36 3.28 -0.32 4.72 l3.56 -0.4 c-0.32 6.8 -0.44 17.08 -0.16 23.4 c1.04 0 1.84 -0.12 2.48 -0.44 c-0.2 -5.8 -0.08 -16.88 0.56 -23.32 z M14.04 16.68 l-3.56 0.76 c-0.72 6.16 -1.16 17.16 -1.12 23.08 c-1.88 1.6 -4 1.64 -6.4 1.6 c-0.08 -6.84 0.4 -17.24 0.84 -23.52 l-3.2 0.48 c-0.24 -2.6 0.04 -6.76 0.84 -8.88 c0 0 4.56 -1.12 12.6 -1.52 c0.36 2.48 0.36 5.52 0 8 z M23.2 19.12 c-0.04 -0.6 -0.76 -0.68 -0.84 0.24 c-0.32 3.76 -0.92 11.72 -0.52 13.96 c0.12 0.72 1.04 0.32 1.16 -0.56 c0.44 -3.04 0.44 -11.16 0.2 -13.64 z M25.28 32.88 c-0.16 1.48 -1.16 2.52 -2.28 2.84 c-1.2 0.32 -2.52 -0.24 -2.84 -1.76 c-0.56 -2.52 -0.2 -11.08 -0.04 -14.6 c0.08 -1.6 0.96 -2.68 2.16 -2.96 c1.12 -0.28 2.44 0.36 2.64 1.8 c0.36 2.56 0.72 11.52 0.36 14.68 z M27.759999999999998 38.24 c1 -1.8 0.88 -23.44 -0.88 -25.76 c-1.48 -1.96 -8.68 -0.12 -9.24 1.76 c-0.72 2.44 -1.08 22.48 -0.12 24.56 c0.68 1.48 9.04 1.56 10.24 -0.56 z M28.88 10.760000000000002 c2.16 3.04 1.36 26.04 -0.04 28.48 c-1.84 3.28 -12.08 4.28 -13.48 0.92 c-1.16 -2.76 0.08 -23.76 0.92 -26.48 c1.04 -3.32 10.16 -6.36 12.6 -2.92 z M45.56 12.280000000000001 c-0.8 -0.04 -1.64 0.04 -2.52 0.32 c0.12 2.6 0.2 7.16 -0.24 10.84 c-0.12 1.16 -1.68 1.48 -2.08 0.44 c-1.56 -4.16 -3 -8.88 -4.24 -11.92 c-0.88 0.2 -1.76 0.44 -2.56 0.88 c-0.24 6.88 -0.56 19.96 -0.24 27.04 c0.72 0.12 1.6 0.08 2.48 -0.12 c-0.08 -3 -0.24 -8.16 0.08 -11.44 c0.12 -1.2 1.64 -2.08 2.2 -0.96 c2.04 4.08 3.24 8.28 4.36 11.28 c0.8 -0.08 1.64 -0.2 2.4 -0.48 c0.52 -6.8 0.76 -18.88 0.36 -25.88 z M47.84 9.920000000000002 c0.24 8.04 -0.52 21.8 -1.4 29.52 c-2 1.24 -3.32 1.24 -5.56 1.56 c-1 -2.96 -1.96 -6.44 -3.04 -9.48 c-0.16 3.12 -0.12 7.32 -0.16 10.16 c-2 0.6 -4.12 1.16 -6.32 0.2 c-0.16 -7.84 0.72 -22.48 1.24 -30.12 c1.96 -1.52 3.4 -1.72 5.64 -2.4 c1.04 2.68 2.16 6.12 3.12 9.24 c0.16 -2.72 0.12 -5.64 0.08 -7.68 c2.44 -1.12 4.16 -1.28 6.4 -1 z M63.48000000000001 12.239999999999998 c-0.6 -0.6 -1.36 -1.36 -2.08 -1.6 c-0.92 1.96 -2.2 5 -3.6 8.84 c-0.52 1.4 -1.16 1.92 -1.76 0.36 c-1.48 -3.8 -2.96 -6.36 -3.76 -7.72 c-0.76 0.44 -1.72 1.4 -2.44 2.44 c0.8 1.68 1.76 3.56 2.68 5.44 c1.04 2.16 2 4.36 2.68 6.92 c-1.2 3.2 -2.24 7.32 -2.96 11.36 c0.52 0.4 1.36 0.88 2.28 1.08 c1.84 -9.04 6.64 -21.88 8.96 -27.12 z M66.16000000000001 11.239999999999998 c-2.68 5.68 -8.44 20.24 -10.6 30.6 c-2.8 -0.04 -4.72 -1.04 -5.8 -2.44 c0.92 -4.68 2.12 -9.16 3.36 -12.44 c-0.48 -2.04 -1.28 -4.04 -2.12 -6 c-0.92 -2.12 -1.92 -4.12 -2.88 -6.44 c1.24 -2.04 3.24 -4.4 5.72 -4.88 c0.72 1.24 2.2 3.96 3.28 6.52 c1.08 -2.68 2.36 -5.6 3.56 -8 c2 -0.2 4.04 1.6 5.48 3.08 z M83.88000000000001 35.28 c-2.12 0.28 -4.76 0.4 -4.76 0.4 c-0.28 -5.72 -0.48 -18 0.12 -23.84 c-0.92 0 -1.92 0.12 -2.76 0.36 c-0.28 9.12 -0.2 20.76 0.12 27.12 c2.52 -0.04 5.28 -0.44 7.24 -1.12 c0.04 -0.96 0.08 -2.08 0.04 -2.92 z M85.24000000000001 32.92 c0.24 2 0.12 4.48 -0.12 6.72 c-3.04 1.44 -6.88 2.12 -10.88 2.16 c-0.16 -7.32 0.24 -20.48 0.96 -31.08 c2.32 -1.08 4.44 -1.2 6.84 -1.2 c-1 5.88 -1.36 18.36 -1.32 24.16 c0.92 -0.12 2.28 -0.28 4.52 -0.76 z M98.08000000000001 15.16 c0.04 -1 -0.04 -2.32 -0.24 -3.4 c-2.24 0 -5.8 0.16 -8.28 0.44 c-0.44 6.44 -0.8 18.96 -0.32 27.56 c3.32 0.2 6.52 -0.48 8.36 -1.2 c0.08 -0.96 0.04 -1.92 -0.08 -2.8 c-1.52 0.2 -3.88 0.4 -5.32 0.36 c-0.28 -2.2 -0.32 -5.2 -0.04 -7.6 l5.6 -2.04 c0.08 -0.8 0 -1.72 -0.12 -2.48 l-5.76 0.6 c-0.08 -3.24 0.24 -6.04 0.52 -8.44 c1.84 -0.48 4.2 -0.8 5.68 -1 z M100.08000000000001 16.56 c-1.76 0.24 -4.04 0.64 -5.6 1.04 c-0.2 1.36 -0.44 3.12 -0.52 4.72 l5.24 -0.72 c0.52 2 0.56 4.12 0.16 6.2 l-5.52 2.24 c-0.12 1.32 -0.2 3 -0.16 4.24 c1.32 -0.12 3.4 -0.44 5.04 -1 c0.36 2.56 0.48 4.28 0.12 6.76 c-2.68 1.32 -6.88 2.48 -11.92 2.08 c-0.32 -10.04 0.68 -24.44 1.44 -31.8 c3.56 -0.64 8.48 -1.04 11.52 -1.08 c0.56 2.4 0.56 5.08 0.2 7.32 z"
        ></path>
    </g>
</svg>
