<svg version="1.1" id="Layer_1" xmlns="http://www.w3.org/2000/svg" xmlns:xlink="http://www.w3.org/1999/xlink" x="0px" y="0px"
	 viewBox="0 0 353.4 210.6" style="enable-background:new 0 0 353.4 210.6;" xml:space="preserve">
<style type="text/css">
	.st0{fill:#FFFFFF;}
</style>
<g id="SvgjsG1014" transform="matrix(6.25,0,0,6.25,0,0)">
	<path d="M56.5,16.8c0,6-4.1,10.6-12,13.5c-4.4,1.7-10.7,3.3-16.3,3.3c-9.8,0-16.1-0.9-21.2-5.4C4,25.6,0,20.3,0,16.8
		c0-4.6,2-9.5,7-12.5S20.4,0,28.3,0C39,0,47.2,3.6,52,8.8C54.1,11.2,56.5,13.9,56.5,16.8z"/>
</g>
<g id="SvgjsG1015" transform="matrix(1.1574074074074074,0,0,1.1574074074074074,98.2123845771507,53.70479539588646)">
	<g>
		<g>
			<g>
				<g>
					<path class="st0" d="M-2.9,67.3c-0.6,0-1.2-0.2-1.8-0.6C-5.8,65.7-6,64-5,62.9l15.6-18.5L-5,25.9c-1-1.1-0.8-2.9,0.3-3.8
						c1.1-1,2.9-0.8,3.8,0.3l17.1,20.2c0.9,1,0.9,2.5,0,3.5L-0.8,66.4C-1.4,67-2.1,67.3-2.9,67.3z"/>
				</g>
			</g>
		</g>
		<g>
			<g>
				<g>
					<path class="st0" d="M-53.3,67.3c-0.8,0-1.5-0.3-2.1-1l-17.1-20.2c-0.9-1-0.9-2.5,0-3.5l17.1-20.2c1-1.1,2.7-1.3,3.8-0.3
						c1.1,1,1.3,2.7,0.3,3.8l-15.6,18.5l15.6,18.5c1,1.1,0.8,2.9-0.3,3.8C-52.1,67.1-52.7,67.3-53.3,67.3z"/>
				</g>
			</g>
		</g>
		<g>
			<path class="st0" d="M-40.8,67.3c-0.5,0-1-0.1-1.4-0.4c-1.3-0.8-1.7-2.5-0.9-3.7l25.3-40.5c0.8-1.3,2.5-1.7,3.7-0.9
				c1.3,0.8,1.7,2.5,0.9,3.7l-25.3,40.5C-39,66.9-39.9,67.3-40.8,67.3z"/>
		</g>
	</g>
</g>
<g id="SvgjsG1016" transform="matrix(2.0037630177828007,0,0,2.0037630177828007,54.964209385989086,141.6799550700416)">
	<path class="st0" d="M46.9-28.1l3.6-0.6c0-1.2,0-2.9-0.1-4.1c-5,0.1-8.3,0.6-9.6,0.8c-0.2,1.2-0.4,3.3-0.3,4.7l3.6-0.4
		c-0.3,6.8-0.4,17.1-0.2,23.4c1,0,1.8-0.1,2.5-0.4C46.2-10.6,46.3-21.7,46.9-28.1z M52.5-27.5L49-26.7c-0.7,6.2-1.2,17.2-1.1,23.1
		C46-2,43.9-2,41.5-2c-0.1-6.8,0.4-17.2,0.8-23.5l-3.2,0.5c-0.2-2.6,0-6.8,0.8-8.9c0,0,4.6-1.1,12.6-1.5
		C52.9-33,52.9-29.9,52.5-27.5z M61.7-25c0-0.6-0.8-0.7-0.8,0.2c-0.3,3.8-0.9,11.7-0.5,14c0.1,0.7,1,0.3,1.2-0.6
		C61.9-14.4,61.9-22.5,61.7-25z M63.8-11.3c-0.2,1.5-1.2,2.5-2.3,2.8c-1.2,0.3-2.5-0.2-2.8-1.8c-0.6-2.5-0.2-11.1,0-14.6
		c0.1-1.6,1-2.7,2.2-3c1.1-0.3,2.4,0.4,2.6,1.8C63.8-23.4,64.1-14.4,63.8-11.3z M66.3-5.9c1-1.8,0.9-23.4-0.9-25.8
		c-1.5-2-8.7-0.1-9.2,1.8C55.4-27.5,55.1-7.4,56-5.3C56.7-3.9,65.1-3.8,66.3-5.9z M67.4-33.4c2.2,3,1.4,26,0,28.5
		C65.5-1.6,55.3-0.6,53.9-4c-1.2-2.8,0.1-23.8,0.9-26.5C55.8-33.8,64.9-36.8,67.4-33.4z M84.1-31.9c-0.8,0-1.6,0-2.5,0.3
		c0.1,2.6,0.2,7.2-0.2,10.8c-0.1,1.2-1.7,1.5-2.1,0.4c-1.6-4.2-3-8.9-4.2-11.9c-0.9,0.2-1.8,0.4-2.6,0.9c-0.2,6.9-0.6,20-0.2,27
		c0.7,0.1,1.6,0.1,2.5-0.1c-0.1-3-0.2-8.2,0.1-11.4c0.1-1.2,1.6-2.1,2.2-1c2,4.1,3.2,8.3,4.4,11.3c0.8-0.1,1.6-0.2,2.4-0.5
		C84.2-12.8,84.5-24.9,84.1-31.9z M86.3-34.2c0.2,8-0.5,21.8-1.4,29.5c-2,1.2-3.3,1.2-5.6,1.6c-1-3-2-6.4-3-9.5
		c-0.2,3.1-0.1,7.3-0.2,10.2c-2,0.6-4.1,1.2-6.3,0.2c-0.2-7.8,0.7-22.5,1.2-30.1c2-1.5,3.4-1.7,5.6-2.4c1,2.7,2.2,6.1,3.1,9.2
		c0.2-2.7,0.1-5.6,0.1-7.7C82.4-34.3,84.1-34.5,86.3-34.2z M102-31.9c-0.6-0.6-1.4-1.4-2.1-1.6c-0.9,2-2.2,5-3.6,8.8
		c-0.5,1.4-1.2,1.9-1.8,0.4c-1.5-3.8-3-6.4-3.8-7.7c-0.8,0.4-1.7,1.4-2.4,2.4c0.8,1.7,1.8,3.6,2.7,5.4c1,2.2,2,4.4,2.7,6.9
		c-1.2,3.2-2.2,7.3-3,11.4C91.3-5.5,92.1-5,93-4.8C94.9-13.8,99.7-26.7,102-31.9L102-31.9z M104.7-32.9c-2.7,5.7-8.4,20.2-10.6,30.6
		c-2.8,0-4.7-1-5.8-2.4c0.9-4.7,2.1-9.2,3.4-12.4c-0.5-2-1.3-4-2.1-6c-0.9-2.1-1.9-4.1-2.9-6.4c1.2-2,3.2-4.4,5.7-4.9
		c0.7,1.2,2.2,4,3.3,6.5c1.1-2.7,2.4-5.6,3.6-8C101.2-36.2,103.2-34.4,104.7-32.9L104.7-32.9z M122.4-8.9c-2.1,0.3-4.8,0.4-4.8,0.4
		c-0.3-5.7-0.5-18,0.1-23.8c-0.9,0-1.9,0.1-2.8,0.4c-0.3,9.1-0.2,20.8,0.1,27.1c2.5,0,5.3-0.4,7.2-1.1C122.4-6.9,122.4-8,122.4-8.9z
		 M123.7-11.2c0.2,2,0.1,4.5-0.1,6.7c-3,1.4-6.9,2.1-10.9,2.2c-0.2-7.3,0.2-20.5,1-31.1c2.3-1.1,4.4-1.2,6.8-1.2
		c-1,5.9-1.4,18.4-1.3,24.2C120.1-10.6,121.5-10.7,123.7-11.2L123.7-11.2z M136.6-29c0-1,0-2.3-0.2-3.4c-2.2,0-5.8,0.2-8.3,0.4
		c-0.4,6.4-0.8,19-0.3,27.6c3.3,0.2,6.5-0.5,8.4-1.2c0.1-1,0-1.9-0.1-2.8c-1.5,0.2-3.9,0.4-5.3,0.4c-0.3-2.2-0.3-5.2,0-7.6l5.6-2
		c0.1-0.8,0-1.7-0.1-2.5l-5.8,0.6c-0.1-3.2,0.2-6,0.5-8.4C132.7-28.5,135.1-28.8,136.6-29L136.6-29z M138.6-27.6
		c-1.8,0.2-4,0.6-5.6,1c-0.2,1.4-0.4,3.1-0.5,4.7l5.2-0.7c0.5,2,0.6,4.1,0.2,6.2l-5.5,2.2c-0.1,1.3-0.2,3-0.2,4.2
		c1.3-0.1,3.4-0.4,5-1c0.4,2.6,0.5,4.3,0.1,6.8c-2.7,1.3-6.9,2.5-11.9,2.1c-0.3-10,0.7-24.4,1.4-31.8c3.6-0.6,8.5-1,11.5-1.1
		C138.9-32.5,138.9-29.8,138.6-27.6L138.6-27.6z"/>
</g>
</svg>
